<?xml version="1.0" standalone="no"?>
<!DOCTYPE svg PUBLIC "-//W3C//DTD SVG 20010904//EN"
 "http://www.w3.org/TR/2001/REC-SVG-20010904/DTD/svg10.dtd">
<svg version="1.0" xmlns="http://www.w3.org/2000/svg"
 width="900.000000pt" height="50.000000pt" viewBox="0 0 900.000000 108.000000"
 preserveAspectRatio="xMidYMid meet">
<metadata>
Created by potrace 1.10, written by Peter Selinger 2001-2011
</metadata>
<g transform="translate(0.000000,108.000000) scale(0.100000,-0.100000)"
fill="#FFFFFF" stroke="none">
<path d="M8133 899 c-18 -5 -33 -13 -33 -18 0 -5 -11 -12 -25 -15 -14 -4 -25
-11 -25 -16 0 -6 -6 -10 -14 -10 -8 0 -42 -18 -75 -40 -62 -42 -74 -65 -47
-92 7 -8 17 -24 20 -36 4 -12 11 -22 16 -22 4 0 11 -11 14 -25 4 -14 17 -32
31 -41 23 -15 27 -15 68 5 24 12 46 21 49 21 3 0 3 -95 0 -210 l-5 -211 28
-29 29 -30 211 0 211 0 22 25 c21 24 22 34 22 240 0 222 2 233 39 201 32 -27
65 -27 94 0 15 14 27 31 27 39 0 8 4 15 10 15 5 0 12 11 16 25 3 13 12 29 20
36 27 22 14 46 -46 88 -33 22 -67 41 -75 41 -8 0 -15 4 -15 9 0 5 -10 13 -22
17 -13 3 -31 14 -42 23 -14 13 -37 15 -112 13 -163 -4 -197 -4 -279 2 -44 3
-95 1 -112 -5z m203 -60 c14 -12 34 -10 114 11 60 15 154 9 178 -13 10 -9 26
-17 35 -17 9 0 17 -4 17 -9 0 -5 12 -14 28 -20 53 -21 99 -60 83 -71 -5 -3
-19 -25 -33 -50 -20 -36 -30 -44 -49 -42 -13 1 -26 6 -29 11 -3 5 -15 11 -27
15 -13 4 -23 12 -23 17 0 5 -11 9 -24 9 -22 0 -24 -5 -31 -66 -4 -36 -6 -141
-5 -232 1 -92 2 -175 1 -184 -1 -17 -17 -18 -194 -18 -137 0 -196 3 -205 12
-9 9 -12 78 -12 249 0 175 -3 238 -12 241 -7 3 -35 -11 -62 -29 -28 -18 -54
-33 -58 -33 -8 0 -48 55 -48 66 0 4 -7 16 -16 26 -22 23 -10 38 56 69 28 13
50 27 50 31 0 5 6 8 14 8 8 0 21 6 28 14 8 8 23 16 34 19 31 9 175 -2 190 -14z"/>
<path d="M264 879 c-4 -7 -7 -154 -7 -328 l-1 -316 78 -3 78 -3 -3 137 c-4
122 -2 138 14 148 12 8 22 8 35 0 15 -10 17 -26 13 -148 l-3 -137 77 3 78 3 1
323 c1 208 -3 322 -9 323 -10 1 -121 0 -139 -1 -4 0 -7 -53 -5 -117 l4 -118
-35 0 -35 0 4 118 3 117 -55 0 c-30 0 -62 3 -70 6 -8 3 -18 0 -23 -7z"/>
<path d="M778 864 c-72 -47 -73 -51 -73 -309 0 -226 0 -231 23 -260 42 -53 70
-65 154 -65 92 0 133 19 166 79 21 36 22 51 22 253 0 212 0 214 -25 251 -36
53 -90 77 -167 76 -49 0 -71 -5 -100 -25z m123 -84 c18 -10 19 -23 19 -226 l0
-214 -26 -12 c-21 -10 -27 -9 -35 3 -14 22 -12 432 3 447 15 15 15 15 39 2z"/>
<path d="M1369 879 c-12 -7 -7 -34 19 -114 28 -85 42 -134 42 -149 0 -9 8 -31
17 -49 12 -24 18 -70 22 -182 l6 -150 75 0 75 0 -3 100 c-4 100 8 182 34 242
8 17 14 42 14 55 0 13 4 28 9 34 6 5 14 27 20 49 5 22 16 58 24 80 8 22 17 51
19 65 3 25 3 25 -67 22 -89 -4 -95 -12 -95 -117 0 -68 -3 -85 -21 -103 -11
-12 -24 -20 -30 -17 -5 4 -9 50 -9 104 0 63 -4 103 -12 113 -14 17 -118 30
-139 17z"/>
<path d="M1985 872 c-71 -41 -75 -48 -75 -150 0 -113 12 -134 110 -193 100
-61 102 -63 108 -117 5 -56 -10 -92 -38 -92 -27 0 -34 17 -35 79 l0 55 -40 8
c-22 5 -56 8 -75 6 l-35 -3 3 -70 c4 -72 30 -135 57 -135 7 0 18 -7 25 -15 18
-22 192 -22 210 0 7 8 17 15 22 15 5 0 18 10 29 23 15 18 18 39 19 124 0 100
-1 103 -31 137 -17 20 -58 52 -92 73 -80 48 -97 68 -97 113 0 43 17 62 48 53
18 -4 22 -12 22 -49 0 -51 13 -57 96 -52 49 3 49 3 52 40 5 61 -28 121 -80
147 -56 27 -158 28 -203 3z"/>
<path d="M2334 879 c-2 -4 -3 -152 -2 -329 l3 -321 80 3 80 3 0 35 c0 19 -4
79 -8 133 -7 97 -7 97 17 109 20 8 29 8 41 -2 13 -11 14 -32 9 -147 l-7 -134
82 3 83 3 -1 315 c0 173 0 318 -1 323 0 4 -37 7 -81 7 l-81 0 3 -117 4 -118
-29 -3 c-16 -2 -33 1 -38 6 -5 5 -5 49 2 112 5 57 7 107 3 111 -11 10 -153 16
-159 8z"/>
<path d="M2785 881 c-3 -2 -5 -150 -5 -328 l0 -323 69 0 c38 0 75 2 83 5 10 4
13 66 11 321 -1 174 -3 318 -5 319 -6 5 -149 11 -153 6z"/>
<path d="M3585 883 c-88 -2 -163 -7 -168 -12 -4 -4 -5 -33 -1 -64 l7 -57 42 0
c23 0 47 -6 52 -12 5 -8 6 -114 2 -253 -4 -132 -5 -243 -2 -248 2 -4 40 -7 84
-7 l80 0 -1 247 c-1 137 -1 253 0 260 0 7 18 13 43 15 l42 3 5 47 c6 48 -3 90
-17 86 -4 -1 -80 -4 -168 -5z"/>
<path d="M3876 862 c-29 -20 -45 -41 -57 -77 -41 -114 -12 -186 101 -256 109
-67 142 -126 104 -184 -33 -51 -74 -16 -74 63 l0 51 -43 6 c-24 4 -56 5 -73 3
-25 -3 -29 -8 -32 -36 -6 -60 24 -137 67 -171 37 -29 44 -31 125 -31 75 0 92
3 126 25 33 21 42 35 55 80 17 56 15 79 -8 163 -9 35 -23 52 -62 80 -27 20
-64 45 -82 54 -73 40 -101 100 -64 137 39 39 61 23 61 -44 0 -38 14 -45 99
-45 l54 0 -7 67 c-8 74 -20 95 -78 124 -26 13 -58 19 -105 19 -57 -1 -74 -5
-107 -28z"/>
<path d="M4424 865 c-7 -11 -16 -63 -19 -115 -4 -52 -13 -125 -21 -162 -8 -37
-14 -89 -14 -115 0 -26 -7 -73 -15 -103 -8 -30 -15 -74 -15 -98 l0 -43 83 3
82 3 5 60 c5 59 5 60 38 63 35 4 34 5 36 -73 l1 -50 84 -3 83 -3 -5 33 c-15
84 -39 251 -47 331 -5 49 -14 105 -20 125 -5 20 -10 63 -10 95 0 37 -4 59 -12
62 -7 2 -60 5 -117 7 -95 3 -105 1 -117 -17z m145 -203 c5 -26 11 -81 13 -122
l3 -75 -37 -3 -38 -3 0 110 c0 121 11 171 34 152 8 -7 19 -33 25 -59z"/>
<path d="M4792 872 c-4 -9 -5 -156 -2 -327 l5 -310 58 -3 c44 -2 59 1 63 12 3
8 0 65 -6 126 -6 61 -9 122 -6 136 9 33 34 30 42 -3 3 -16 10 -37 14 -48 9
-19 26 -97 39 -180 l6 -40 73 -3 72 -3 -2 327 -3 328 -54 0 c-56 1 -87 -15
-77 -40 9 -24 28 -225 22 -239 -9 -25 -35 -17 -42 13 -4 15 -10 32 -14 37 -8
9 -21 65 -39 163 -4 24 -12 47 -17 51 -5 5 -35 11 -67 14 -47 5 -58 3 -65 -11z"/>
<path d="M5814 878 c-3 -5 -7 -531 -4 -636 0 -10 20 -12 83 -10 l82 3 -5 95
c-2 52 -4 111 -5 130 l0 35 65 3 c106 5 135 52 129 210 -5 111 -21 140 -93
158 -52 14 -246 23 -252 12z m204 -110 c7 -7 12 -41 12 -83 0 -76 -9 -95 -47
-95 -22 0 -23 3 -23 89 0 92 0 91 41 100 3 0 10 -4 17 -11z"/>
<path d="M6340 880 l-105 -5 -6 -100 c-6 -105 -34 -309 -44 -325 -3 -5 -10
-42 -15 -82 -6 -40 -13 -88 -16 -106 l-6 -32 86 0 86 0 0 60 c0 55 2 60 24 66
14 3 34 3 47 -1 19 -6 21 -12 16 -54 -7 -69 -5 -71 80 -71 l76 0 -7 71 c-4 39
-12 83 -17 96 -5 13 -9 47 -9 74 0 27 -6 82 -14 122 -8 40 -17 110 -21 156 -6
84 -21 133 -40 136 -5 0 -57 -2 -115 -5z m52 -277 c1 -51 2 -103 2 -115 1 -20
-5 -23 -38 -26 l-39 -3 7 48 c4 26 10 82 14 123 9 90 19 112 39 85 8 -12 14
-52 15 -112z"/>
<path d="M6618 882 c-9 -2 -18 -9 -20 -15 -3 -7 -1 -88 4 -182 5 -93 8 -232 5
-307 -4 -155 -8 -148 79 -148 l55 0 -6 138 c-7 143 0 177 28 153 9 -7 17 -36
20 -69 6 -67 21 -144 37 -190 l12 -33 71 3 71 3 -3 315 c-1 173 -6 318 -9 321
-14 13 -124 16 -128 4 -3 -7 -1 -72 4 -146 5 -74 8 -136 6 -138 -2 -2 -15 4
-29 13 -19 13 -25 25 -25 53 0 20 -4 50 -9 67 -5 17 -18 60 -28 96 l-19 64
-50 1 c-27 0 -57 -1 -66 -3z"/>
<path d="M7180 880 l-165 -5 0 -60 0 -60 45 -5 45 -5 0 -255 0 -255 85 0 85 0
0 255 0 255 40 3 c22 2 43 9 47 15 13 20 9 115 -4 118 -7 2 -87 2 -178 -1z"/>
<path d="M7469 865 c-49 -32 -69 -78 -69 -162 0 -88 13 -107 120 -179 47 -31
88 -61 92 -68 4 -6 8 -34 8 -62 0 -57 -16 -80 -50 -69 -21 7 -21 9 -24 85 -1
41 -3 45 -31 51 -16 4 -49 7 -72 8 l-43 1 0 -66 c0 -124 56 -174 193 -174 73
1 86 4 121 28 49 34 60 70 53 174 -3 52 -11 84 -23 101 -19 25 -81 73 -124 95
-52 27 -80 64 -80 104 0 27 5 40 19 48 34 17 51 2 51 -45 0 -51 7 -55 91 -55
l59 0 0 58 c0 71 -22 107 -80 133 -62 28 -164 25 -211 -6z"/>
<path d="M1140 875 c-1 -3 -1 -148 -1 -322 l-1 -318 132 -3 131 -3 -3 68 -3
68 -45 0 -45 0 -1 250 c-1 138 -2 253 -3 258 -1 8 -161 10 -161 2z"/>
<path d="M3020 873 c0 -5 -1 -150 -1 -323 l-1 -315 77 -3 78 -3 -4 153 -4 153
29 -2 c16 -1 31 -5 35 -9 3 -3 6 -70 6 -147 l0 -142 73 -3 72 -3 0 140 0 139
-42 36 -43 35 33 12 c18 6 37 19 42 29 13 24 13 105 -1 152 -18 65 -45 87
-124 98 -83 11 -225 13 -225 3z m212 -117 c4 -6 8 -34 8 -63 0 -58 -19 -86
-54 -81 -19 3 -21 10 -24 71 -3 77 8 101 42 91 12 -4 24 -12 28 -18z"/>
<path d="M5225 558 l0 -323 141 0 c148 0 179 7 216 50 15 18 17 48 18 266 l0
245 -33 32 c-27 26 -45 33 -102 42 -39 5 -108 10 -155 10 l-85 0 0 -322z m207
205 c16 -14 18 -35 18 -204 0 -160 -2 -190 -16 -204 -9 -9 -24 -15 -33 -13
-14 3 -16 28 -19 208 -1 112 0 210 2 217 7 18 26 16 48 -4z"/>
</g>
</svg>
